<?xml version="1.0" encoding="UTF-8" standalone="no"?>
<!-- Created with Inkscape (http://www.inkscape.org/) -->

<svg
   width="365.64944"
   height="246.02151"
   viewBox="0 0 365.64944 246.02151"
   version="1.1"
   id="svg1"
   xml:space="preserve"
   xmlns="http://www.w3.org/2000/svg"
   xmlns:svg="http://www.w3.org/2000/svg"><defs
     id="defs1" /><g
     id="layer1"
     style="display:inline"
     transform="translate(-390.40323,-415.40251)"><g
       id="g282"
       style="display:inline;stroke-width:0.996305"
       transform="matrix(1.0074305,0,0,1,-909.79978,108.01968)"><g
         id="g6"
         transform="matrix(0.79825617,0,0,0.79338068,834.80968,82.063583)"
         style="stroke-width:1.25193"><g
           id="g3"
           style="display:inline;stroke-width:1.25193"><path
             id="rect1"
             style="fill:#dbd7e3;fill-opacity:1;stroke-width:52.5811;stroke-linecap:square;stroke-dasharray:none"
             d="m 862.50005,283.99888 -217.50013,1.00223 -36.99925,75.99847 -37.00151,76.00072 95.60933,0.61136 41.89004,-76.61208 h 123.50214 z" /><path
             id="rect3"
             style="fill:#ffffff;fill-opacity:1;stroke-width:52.581;stroke-linecap:square"
             d="m 571,437 h 224.99998 l -36,76 H 620 Z" /></g><g
           id="g5"
           transform="rotate(180,796,437)"
           style="display:inline;stroke-width:1.25193"><path
             id="path5"
             style="fill:#dbd7e3;fill-opacity:1;stroke-width:52.581;stroke-linecap:square"
             d="m 566.31908,436.9997 229.6809,3e-4 -36,76 -144.44646,0.57888 z" /><path
             id="path3"
             style="fill:#ffffff;stroke-width:52.581;stroke-linecap:square"
             d="M 615.55352,513.57888 688.9424,360.52391 831.99998,361 875.25036,280.36543 641.29603,279.9085 C 600.01924,361 603.75387,361 566.31908,436.9997 Z" /></g></g></g></g></svg>
